
<svg width="19px" height="20px" viewBox="0 0 19 20" version="1.1" xmlns="http://www.w3.org/2000/svg" xmlns:xlink="http://www.w3.org/1999/xlink">
    <title>Sign In Icon</title>
    <g id="Symbols" stroke="#FFFFFF" stroke-width="2" fill="none" fill-rule="evenodd">
        <g id="Navigation/Desktop/Utility-Bar/Logged-Out" transform="translate(-1391.000000, -13.000000)" fill="#FFFFFF">
            <g id="Utility-Links" transform="translate(1118.000000, 8.000000)">
                <g id="Sign-In-Icon" transform="translate(271.000000, 0.000000)">
                    <path d="M16,17.5 C18.4142733,17.5 20.3844891,19.4012365 20.495102,21.7881643 L20.5,22 L20.5,25 L19.5,25 L19.5,22 C19.5,20.1314366 18.0357224,18.6048736 16.1920352,18.5051789 L16,18.5 L7,18.5 C5.1314366,18.5 3.60487355,19.9642776 3.50517886,21.8079648 L3.5,22 L3.5,25 L2.5,25 L2.5,22 C2.5,19.5857267 4.40123652,17.6155109 6.7881643,17.504898 L7,17.5 L16,17.5 Z M11.5,5.5 C14.2614237,5.5 16.5,7.73857625 16.5,10.5 C16.5,13.2614237 14.2614237,15.5 11.5,15.5 C8.73857625,15.5 6.5,13.2614237 6.5,10.5 C6.5,7.73857625 8.73857625,5.5 11.5,5.5 Z M11.5,6.5 C9.290861,6.5 7.5,8.290861 7.5,10.5 C7.5,12.709139 9.290861,14.5 11.5,14.5 C13.709139,14.5 15.5,12.709139 15.5,10.5 C15.5,8.290861 13.709139,6.5 11.5,6.5 Z"></path>
                </g>
            </g>
        </g>
    </g>
</svg> 