<svg width="26px" height="20px" viewBox="0 0 26 20" version="1.1" xmlns="http://www.w3.org/2000/svg" xmlns:xlink="http://www.w3.org/1999/xlink">
    <g id="B6-Account---Returns" stroke="none" stroke-width="1.5" fill="none" fill-rule="evenodd">
        <g id="Icons/Navigation/Cart/Empty" transform="translate(0.000000, -5.000000)" fill="#FFFFFF">
            <g id="Cart-Icon-empty" transform="translate(0.230000, 5.790000)">
                <path d="M7.93,16.07 C8.54303607,16.07 9.04,16.5669639 9.04,17.18 C9.04,17.7930361 8.54303607,18.29 7.93,18.29 C7.31696393,18.29 6.82,17.7930361 6.82,17.18 C6.82,16.5669639 7.31696393,16.07 7.93,16.07 Z M20.45,16.07 C21.0630361,16.07 21.56,16.5669639 21.56,17.18 C21.56,17.7930361 21.0630361,18.29 20.45,18.29 C19.8369639,18.29 19.34,17.7930361 19.34,17.18 C19.34,16.5669639 19.8369639,16.07 20.45,16.07 Z M4.54607316,-5.79980508e-13 L5.015,1.998 L24.3259336,1.88626579 L21.0076134,14.78 L6.99392684,14.78 L3.754,1 L-8.01136935e-13,1 L-8.01136935e-13,-5.79980508e-13 L4.54607316,-5.79980508e-13 Z M23.033,2.893 L5.25,2.995 L7.785,13.779 L20.232,13.779 L23.033,2.893 Z" id="Cart-Icon"></path>
            </g>
        </g>
    </g>
</svg> 